<svg width="31" height="31" viewBox="0 0 31 31" fill="none" xmlns="http://www.w3.org/2000/svg">
<path d="M13.3599 28.0728C14.4946 28.0728 15.6294 27.9326 16.7642 27.6489C16.624 27.3652 16.3403 27.2251 15.9131 27.3652C16.3369 25.3794 16.6206 24.3882 17.4717 23.5371C18.0391 23.1133 18.3228 22.4023 17.8955 21.835C17.6118 21.4111 17.0444 21.1274 16.6206 21.2676C15.7695 21.4077 16.3369 20.2764 15.6294 20.1328C14.9219 19.9927 13.9272 18.5742 12.936 18.147C12.3687 17.8633 11.8013 17.1558 10.9502 17.1558C10.2427 17.1558 9.10791 17.8633 9.10791 17.2959C9.10791 15.5937 8.96777 14.459 8.96777 13.8916C8.96777 13.4678 8.68408 13.7515 9.81885 13.7515C10.3862 13.7515 10.1025 12.6167 10.6699 12.6167C11.2373 12.6167 12.5122 13.1841 12.7959 12.9004C13.0796 12.7603 15.0654 18.0068 15.0654 13.7515C15.0654 13.1841 14.7817 12.333 15.0654 11.9092C15.7729 10.7744 16.4839 9.49951 17.0513 8.22119C16.4839 8.08105 15.7764 8.08105 15.209 8.22119C14.9253 8.36133 15.3491 8.78857 14.9253 8.78857C13.5068 9.07227 12.2319 8.36475 12.6558 7.65381C13.0796 6.94629 14.7817 7.37012 14.9253 5.95166C15.0654 5.10059 15.0654 4.24951 15.0654 3.54199C16.9077 3.82568 16.7676 1.41602 14.3579 0.848633H13.6504C7.12549 0.848633 1.59521 5.3877 0.316895 11.769C0.884277 12.3364 1.87549 12.3364 2.30273 11.6289C2.1626 11.4888 2.1626 11.4888 2.30273 11.3452C2.87012 11.769 3.72119 11.769 3.72119 12.48C3.72119 14.8896 3.86133 17.4429 5.99072 17.4429C6.8418 17.7266 7.40918 18.4341 7.69287 19.2852C7.83301 19.8525 8.68408 19.2852 9.39502 19.2852C9.81885 19.2852 9.39502 19.9927 9.39502 21.4111C9.39502 22.8296 12.6558 25.2393 12.6558 25.2393C12.6558 26.0903 12.6558 26.7979 12.7959 27.6489C12.3721 27.6489 11.8047 27.6489 11.3774 27.7891C12.085 28.0728 12.6523 28.0728 13.3599 28.0728ZM26.126 9.9165C26.126 9.9165 25.9858 9.9165 25.9858 9.77637C25.1348 7.50684 23.0088 9.20898 23.7163 11.0513C19.7446 14.0283 20.8794 16.1577 22.1577 17.2925C22.8652 18 23.4326 18.7109 23.8599 19.562C23.436 20.6968 25.1348 20.4131 26.2695 18.7109C26.8369 17.2925 26.9771 15.7339 26.9771 14.1719V12.897C26.9771 12.6133 26.9771 12.3296 26.8369 12.1895C26.6934 11.6187 26.4097 10.7676 26.126 9.9165Z" fill="white"/>

<path d="M15.5034 30.3511C7.27637 30.3511 0.611328 23.686 0.611328 15.459C0.611328 7.23193 7.27637 0.563477 15.5034 0.563477C23.7305 0.563477 30.3955 7.22852 30.3955 15.4556C30.3955 23.6826 23.7305 30.3511 15.5034 30.3511ZM15.5034 1.98193C8.12744 1.98193 2.02979 8.07959 2.02979 15.4556C2.02979 22.8315 8.12744 28.9326 15.5034 28.9326C22.8794 28.9326 28.977 22.835 28.977 15.459C28.977 8.08301 22.8794 1.98193 15.5034 1.98193Z" fill="white"/>
</svg>
