<svg width="431" height="283" viewBox="0 0 431 283" fill="none" xmlns="http://www.w3.org/2000/svg">
<path d="M57.2694 67.4164C56.2266 67.4164 55.422 67.4164 54.6175 67.4164C40.9128 67.4164 27.2037 67.385 13.4991 67.4568C11.6517 67.4658 10.2269 67.0033 8.84698 65.7997C6.65352 63.8822 4.23533 62.2116 2.08232 60.2492C1.31821 59.5531 0.63051 58.3137 0.626016 57.3212C0.53612 41.4599 0.53612 25.5941 0.626016 9.72835C0.63051 8.72692 1.34518 7.58627 2.02839 6.75997C6.21304 1.68544 11.6203 0.683996 18.0928 0.733394C57.0356 1.04325 95.983 0.935479 134.926 0.917516C136.477 0.917516 137.47 1.53724 138.661 2.4309C143.444 6.01451 144.832 10.5232 144.626 16.5094C144.158 29.9591 144.491 43.4403 144.585 56.9081C144.594 58.5068 143.902 59.378 142.882 60.4827C138.221 65.5393 132.629 66.8865 125.828 66.5901C113.881 66.0647 101.894 66.4419 89.5645 66.4419C89.5645 67.7218 89.5645 68.5077 89.5645 69.2935C89.515 121.898 89.506 174.498 89.3667 227.098C89.3487 233.367 91.677 238.235 96.3381 242.187C98.1001 243.683 99.5698 244.073 104.752 244.361C104.752 255.902 104.752 267.456 104.752 279.263C99.4305 279.411 94.0502 279.379 89.1015 276.954C78.3544 271.691 69.5267 264.169 63.8318 253.553C59.8943 246.22 57.0356 238.424 57.0446 229.873C57.0671 210.343 57.0311 190.813 57.0536 171.283C57.0851 144.72 57.148 118.162 57.202 91.5991C57.2154 84.4184 57.2514 77.2332 57.2739 70.0525C57.2739 69.2486 57.2694 68.4448 57.2694 67.4164ZM90.9803 30.4486C90.9758 21.8354 84.2381 15.0633 75.6306 15.0229C67.0096 14.987 59.9303 22.0465 60.0516 30.5564C60.173 39.1113 67.0725 45.8833 75.6306 45.8609C84.2291 45.8339 90.9848 39.0529 90.9803 30.4486ZM11.009 4.93673C10.1774 5.59238 9.53918 6.23905 8.77956 6.66567C6.55464 7.90511 6.02426 9.73284 6.04673 12.2207C6.16809 26.2004 6.10517 40.1846 6.10517 54.1687C6.10517 58.0802 7.09402 59.5397 11.4809 61.5111C8.36155 56.6252 9.58413 51.6045 9.43131 46.7455C9.28748 42.1874 9.21106 37.6159 9.4403 33.0667C9.91225 23.7529 7.95251 14.3089 11.009 4.93673ZM134.796 61.5335C134.966 61.6189 134.638 61.4482 134.805 61.5335C136.081 60.5052 137.555 59.5756 138.737 58.4529C139.205 58.0083 139.56 57.2 139.565 56.5578C139.609 41.0827 139.609 25.6031 139.569 10.128C139.569 9.47238 139.263 8.63261 138.8 8.19701C137.569 7.02493 136.175 6.02798 134.845 4.95918C136.886 8.92451 136.373 13.1368 136.378 17.2773C136.387 27.4443 136.427 37.6159 136.36 47.7829C136.328 52.3545 137.555 57.2808 134.796 61.5335Z" fill="black"/>
<path d="M186.594 230.453C175.716 230.453 165.329 230.453 154.838 230.453C154.838 153.787 154.838 77.2556 154.838 0.576172C165.329 0.576172 175.766 0.576172 186.544 0.576172C186.544 18.108 186.544 35.5007 186.544 53.0684C187.668 53.1178 188.468 53.1852 189.264 53.1897C201.696 53.2481 214.129 53.2211 226.557 53.4277C228.355 53.4591 230.301 54.3303 231.879 55.3003C233.569 56.3377 235.025 57.8421 236.369 59.333C238.495 61.6907 239.834 64.2818 239.825 67.7397C239.74 101.115 239.798 134.49 239.839 167.865C239.866 187.845 239.938 207.824 239.987 227.803C239.992 228.755 239.987 229.712 239.987 230.709C229.317 230.709 218.929 230.709 208.11 230.709C208.11 182.249 208.11 133.884 208.11 85.2266C200.761 85.2266 193.844 85.2266 186.594 85.2266C186.594 133.534 186.594 181.903 186.594 230.453Z" fill="black"/>
<path d="M249.871 140.988C249.871 116.886 250.064 92.7846 249.741 68.6918C249.655 62.4811 257.503 53.3335 264.893 53.4188C283.919 53.6433 302.946 53.5131 321.977 53.4772C325.28 53.4727 327.397 55.4531 329.335 57.6401C330.917 59.4274 332.382 61.3674 333.564 63.4287C334.306 64.722 334.778 66.3746 334.782 67.8655C334.895 116.958 334.89 166.056 335.025 215.153C335.047 222.554 327.051 230.974 319.338 230.763C301.678 230.278 283.991 230.745 266.318 230.803C256.672 230.834 249.727 223.896 249.736 214.183C249.754 194.949 249.826 175.72 249.871 156.486C249.88 151.317 249.871 146.153 249.871 140.988ZM281.775 86.3225C281.775 124.637 281.775 162.831 281.775 200.994C289.21 200.994 296.496 200.994 303.939 200.994C303.611 162.62 303.283 124.498 302.959 86.3225C295.74 86.3225 288.81 86.3225 281.775 86.3225Z" fill="black"/>
<path d="M430.337 108.349C419.68 108.349 409.311 108.349 398.788 108.349C398.788 100.473 398.788 92.578 398.788 84.5441C391.57 84.5441 384.432 84.5441 377.056 84.5441C377.056 133.412 377.056 182.164 377.056 231.05C366.156 231.05 355.495 231.05 344.559 231.05C344.559 230.134 344.559 229.335 344.559 228.535C344.559 191.123 344.545 153.71 344.568 116.294C344.577 100.81 344.734 85.321 344.649 69.8369C344.631 66.4778 345.53 63.6038 347.66 61.1877C349.525 59.0726 351.625 57.1281 353.822 55.3632C354.717 54.6447 356.146 54.2945 357.337 54.2855C373.734 54.1687 390.136 54.1463 406.537 54.0834C409.98 54.0699 413.441 53.7466 416.857 54.0295C418.916 54.2001 421.258 54.7929 422.849 56.0099C427.613 59.6429 430.508 64.4031 430.445 70.7126C430.324 82.4604 430.369 94.2082 430.342 105.951C430.337 106.621 430.337 107.281 430.337 108.349Z" fill="black"/>
<path d="M139.529 281.081C137.578 281.081 136.018 281.081 134.297 281.081C134.297 269.006 134.297 256.944 134.297 244.854C136.832 244.275 138.742 244.805 140.706 246.754C149.777 255.767 159.041 264.587 168.242 273.469C168.538 273.757 168.898 273.977 169.567 274.493C169.567 264.353 169.567 254.613 169.567 244.76C171.051 244.76 172.278 244.76 173.635 244.76C173.635 256.876 173.635 268.88 173.635 280.947C171.707 281.526 170.291 281.018 168.821 279.626C159.49 270.775 150.069 262.023 140.675 253.239C140.423 253.005 140.145 252.803 139.533 252.305C139.529 262.072 139.529 271.444 139.529 281.081Z" fill="black"/>
<path d="M341.264 265.171C346.442 271.022 351.224 276.424 356.312 282.173C353.58 282.577 351.701 282.743 349.889 280.691C345.597 275.818 341.053 271.157 336.522 266.495C335.812 265.763 334.661 265.202 333.65 265.067C331.906 264.838 330.103 265.004 328.022 265.004C328.022 270.735 328.022 276.308 328.022 282.033C326.413 282.033 325.114 282.033 323.698 282.033C323.698 269.549 323.698 257.249 323.698 244.54C329.443 244.54 335.097 244.527 340.752 244.549C342.172 244.554 343.592 244.652 345.008 244.729C349.355 244.971 352.353 247.199 353.84 251.204C355.301 255.138 354.456 258.664 351.346 261.623C348.653 264.192 345.449 265.301 341.264 265.171ZM327.411 262.014C333.411 261.704 339.196 261.497 344.959 261.03C346.19 260.931 347.435 260.02 348.523 259.261C350.402 257.945 351.642 256.176 351.027 253.733C350.37 251.142 348.725 248.986 346.082 248.856C339.933 248.555 333.762 248.761 327.519 248.761C327.492 248.95 327.42 249.237 327.42 249.52C327.411 253.4 327.411 257.276 327.411 262.014Z" fill="black"/>
<path d="M289.394 248.842C282.63 248.842 276.049 248.824 269.469 248.86C268.439 248.865 267.383 249.022 266.39 249.287C264.354 249.835 263.181 251.038 263.482 253.36C263.644 254.613 263.378 255.929 263.617 257.159C264.066 259.499 266.556 261.264 269.051 261.273C273.393 261.282 277.73 261.295 282.072 261.349C285.798 261.394 289.547 265.153 289.574 268.83C289.587 270.402 289.579 271.97 289.574 273.541C289.574 278.14 286.562 281.93 281.955 282.105C274.121 282.397 266.268 282.186 258.304 282.186C258.304 280.767 258.304 279.523 258.304 277.884C260.398 277.884 262.542 277.884 264.682 277.884C269.622 277.884 274.561 277.893 279.501 277.879C281.978 277.875 284.648 276.285 285.133 274.57C286.001 271.494 284.854 267.272 282.67 266.033C281.937 265.62 280.966 265.494 280.099 265.485C275.757 265.431 271.42 265.471 267.078 265.458C261.913 265.44 258.681 262.265 258.717 257.181C258.74 253.795 258.061 250.27 260.843 247.437C262.358 245.896 263.9 244.634 266.219 244.643C273.478 244.675 280.737 244.652 287.992 244.661C288.428 244.661 288.864 244.738 289.39 244.787C289.394 246.152 289.394 247.432 289.394 248.842Z" fill="black"/>
<path d="M398.9 282.181C398.9 280.506 398.9 279.33 398.9 277.879C399.795 277.879 400.595 277.879 401.39 277.879C407.53 277.879 413.67 277.884 419.81 277.879C422.417 277.879 425.181 276.352 425.743 274.624C426.588 272.014 425.644 267.717 423.703 266.334C422.921 265.777 421.779 265.516 420.79 265.498C416.524 265.409 412.254 265.377 407.989 265.489C405.054 265.566 402.851 264.142 400.743 262.431C400.298 262.072 399.79 261.493 399.745 260.981C399.35 256.225 397.97 251.303 401.705 247.136C403.22 245.447 405.022 244.509 407.422 244.607C411.162 244.765 414.906 244.706 418.65 244.724C422.381 244.738 426.116 244.729 429.977 244.729C429.977 246.004 429.977 247.243 429.977 248.734C429.168 248.77 428.386 248.842 427.6 248.842C421.684 248.851 415.769 248.82 409.854 248.874C408.757 248.883 407.62 249.089 406.568 249.417C404.82 249.956 403.809 251.097 404.02 253.095C404.128 254.132 403.988 255.192 404.056 256.234C404.236 258.973 406.627 261.246 409.387 261.264C413.652 261.295 417.922 261.259 422.192 261.277C426.489 261.295 430.099 264.937 430.108 269.239C430.112 270.663 430.108 272.082 430.108 273.505C430.108 278.176 427.213 281.917 422.552 282.105C414.736 282.415 406.888 282.181 398.9 282.181Z" fill="black"/>
<path d="M182.741 281.382C182.741 269.145 182.741 257.191 182.741 245.227C182.975 245.092 183.159 244.886 183.344 244.886C189.097 244.944 194.873 244.724 200.595 245.178C207.251 245.708 212.178 250.881 212.753 257.527C213.05 260.936 213.09 264.407 212.856 267.82C212.308 275.818 207.669 280.727 199.705 281.301C194.144 281.71 188.531 281.382 182.741 281.382ZM186.629 278.405C189.874 278.405 192.859 278.405 195.848 278.405C203.521 278.4 207.036 275.769 209.193 268.377C209.526 267.232 209.795 266.06 209.966 264.879C211.153 256.625 206.577 249.538 199.003 248.586C194.985 248.083 190.845 248.496 186.634 248.496C186.629 258.605 186.629 268.363 186.629 278.405Z" fill="black"/>
<path d="M395.686 277.947C395.686 279.411 395.686 280.65 395.686 282.06C388.418 282.06 381.209 282.06 373.887 282.06C373.887 269.621 373.887 257.307 373.887 244.819C381.168 244.819 388.373 244.819 395.686 244.819C395.686 246.134 395.686 247.365 395.686 248.838C389.848 248.838 384.121 248.838 378.26 248.838C378.26 253.082 378.26 257.078 378.26 261.309C384.094 261.309 389.821 261.309 395.673 261.309C395.673 262.773 395.673 264.008 395.673 265.503C389.929 265.503 384.198 265.503 378.301 265.503C378.301 269.747 378.301 273.734 378.301 277.947C384.121 277.947 389.852 277.947 395.686 277.947Z" fill="black"/>
<path d="M220.678 244.729C222.206 244.657 223.446 244.599 224.925 244.531C224.925 248.286 224.916 251.851 224.93 255.421C224.943 259.535 224.889 263.653 225.024 267.762C225.235 274.341 231.222 278.926 237.78 277.776C242.437 276.959 247.129 272.513 246.81 266.895C246.442 260.406 246.725 253.881 246.725 247.374C246.725 246.561 246.725 245.748 246.725 244.796C248.172 244.796 249.413 244.796 250.923 244.796C250.923 247.172 250.919 249.606 250.923 252.04C250.928 257.271 250.842 262.503 250.968 267.735C251.157 275.428 246.141 281.054 238.401 281.432C235.798 281.557 233.155 281.405 230.562 281.113C226.669 280.673 220.821 274.718 220.736 270.766C220.547 262.171 220.678 253.571 220.678 244.729Z" fill="black"/>
<path d="M307.302 282.06C305.382 282.06 303.706 282.06 301.872 282.06C301.872 270.995 301.872 260.087 301.872 248.945C299.144 248.945 296.559 248.945 293.804 248.945C293.804 247.486 293.804 246.26 293.804 244.836C301.238 244.836 308.758 244.836 316.448 244.836C316.448 246.031 316.448 247.315 316.448 248.847C313.45 248.847 310.493 248.847 307.302 248.847C307.302 260.038 307.302 270.995 307.302 282.06Z" fill="black"/>
<path d="M367.019 282.042C365.441 282.042 363.918 282.042 362.272 282.042C362.272 269.648 362.272 257.303 362.272 244.841C363.918 244.841 365.383 244.841 367.019 244.841C367.019 257.191 367.019 269.527 367.019 282.042Z" fill="black"/>
<path d="M122.804 244.747C124.215 244.747 125.456 244.747 126.818 244.747C126.818 256.836 126.818 268.831 126.818 280.996C125.528 280.996 124.233 280.996 122.804 280.996C122.804 268.988 122.804 256.998 122.804 244.747Z" fill="black"/>
</svg>
